<?xml version="1.0"?>
<svg version="1.1" xmlns="http://www.w3.org/2000/svg" width="200" height="40" style=""><path fill="#ffffff" d="M15.833984375,14.982421875q0-0.95703125,0.328125-1.28515625t0.916015625-0.328125q0.1640625,0,0.3486328125,0.02734375t0.3486328125,0.08203125q0.916015625-0.177734375,1.736328125-0.177734375q1.326171875,0,2.40625,0.46484375q1.736328125,0.73828125,2.87109375,2.1875t1.66796875,3.404296875t0.533203125,4.005859375q0,1.1484375-0.1572265625,2.392578125t-0.6083984375,2.310546875q-0.396484375,0.95703125-1.09375,2.0029296875t-1.5791015625,1.982421875t-1.900390625,1.640625t-2.0576171875,0.9501953125l0,0.109375q0,0.2734375-0.1435546875,0.4443359375t-0.3486328125,0.259765625t-0.4716796875,0.1162109375t-0.4990234375,0.02734375q-0.13671875,0-0.3896484375-0.02734375t-0.4921875-0.1025390625t-0.4033203125-0.1982421875t-0.1640625-0.341796875q0-2.48828125-0.1298828125-4.9833984375t-0.2939453125-4.990234375t-0.2939453125-4.9833984375t-0.1298828125-4.990234375z M18.41796875,14.28515625q0.13671875,1.3125,0.177734375,2.6181640625t0.123046875,2.6181640625q0.21875,3.390625,0.505859375,6.7470703125t0.341796875,6.7470703125q1.3125-0.861328125,2.2490234375-1.96875t1.5380859375-2.40625t0.8818359375-2.7275390625t0.2802734375-2.9462890625q0-1.09375-0.19140625-2.40625t-0.65625-2.529296875t-1.2509765625-2.201171875t-1.9619140625-1.408203125q-0.24609375-0.08203125-0.5947265625-0.13671875t-1.1142578125-0.0546875q-0.08203125,0-0.1640625,0.02734375t-0.1640625,0.02734375z M29.77478515625,28.572265625q0-1.2578125,0.2939453125-2.4677734375t0.4990234375-2.4130859375q0.0546875-0.314453125,0.4306640625-0.3896484375t0.6357421875-0.0751953125q0.451171875,0,0.724609375,0.13671875q0.109375,0.0546875,0.205078125,0.123046875t0.095703125,0.177734375q0,1.17578125-0.2802734375,2.296875t-0.2802734375,2.37890625q0,0.423828125,0.0615234375,0.7998046875t0.1162109375,0.7451171875l0.08203125,0.396484375q0,0.109375,0.013671875,0.19140625t0.041015625,0.19140625q0,0.24609375-0.3486328125,0.3349609375t-0.6083984375,0.0888671875q-0.396484375,0-0.7314453125-0.1572265625t-0.5263671875-0.5400390625l-0.19140625-0.396484375q-0.1640625-0.314453125-0.1640625-0.7041015625t-0.068359375-0.7177734375z M30.64978515625,20.341796875l0-0.259765625q0-0.642578125,0.3212890625-1.1484375t0.9638671875-0.505859375q0.08203125,0,0.1572265625,0.013671875t0.1572265625,0.013671875q0.1640625,0.02734375,0.4306640625,0.1298828125t0.2666015625,0.3212890625l0,0.02734375q-0.0546875,0.109375-0.068359375,0.2255859375t-0.068359375,0.1982421875l0.02734375-0.02734375q-0.1640625,0.423828125-0.2666015625,0.68359375t-0.2255859375,0.4169921875t-0.3076171875,0.2255859375t-0.5263671875,0.068359375q-0.0546875,0-0.19140625-0.013671875t-0.2939453125-0.0546875t-0.2666015625-0.109375t-0.109375-0.205078125z M35.7585546875,28.96875l0-0.396484375q0-0.4921875,0.02734375-0.9296875q0.02734375-0.615234375,0.02734375-1.01171875q0-0.21875,0.02734375-0.4990234375t0.13671875-0.4443359375q0.13671875-0.13671875,0.3212890625-0.2802734375t0.4033203125-0.1435546875q0.697265625,0,1.09375,0.1572265625t0.423828125,0.6494140625l0.0546875,0.423828125q0.24609375-0.587890625,0.65625-1.4560546875t0.9501953125-1.654296875t1.216796875-1.33984375t1.4287109375-0.5537109375q0.697265625,0,1.1484375,0.65625t0.7177734375,1.6748046875t0.3759765625,2.26953125t0.150390625,2.4541015625t0.0546875,2.1943359375t0.095703125,1.4970703125q0.0546875,0.423828125,0.1845703125,0.8955078125t0.1298828125,0.8681640625q0,0.109375-0.1572265625,0.2119140625t-0.3349609375,0.1708984375t-0.3623046875,0.109375t-0.2666015625,0.041015625q-0.533203125,0-0.7587890625-0.7998046875t-0.2802734375-2.0029296875t-0.0546875-2.6044921875t-0.095703125-2.6044921875t-0.3896484375-2.0029296875t-0.9365234375-0.8271484375q-0.587890625,0-1.216796875,0.7587890625t-1.080078125,2.0166015625q-0.4375,1.2578125-0.6015625,2.857421875q-0.0546875,0.505859375-0.0546875,1.01171875q0,1.107421875,0.232421875,2.21484375q0.02734375,0.19140625-0.1572265625,0.287109375t-0.4580078125,0.150390625t-0.5537109375,0.068359375t-0.4306640625,0.013671875q-0.533203125,0-0.8544921875-0.3759765625t-0.4990234375-0.9638671875t-0.2392578125-1.3193359375t-0.0751953125-1.4423828125z M48.18177734375,29.4609375q0-0.95703125,0.2119140625-2.255859375t0.7177734375-2.4609375t1.3330078125-1.9755859375t2.0849609375-0.8134765625q1.17578125,0,1.763671875,0.6767578125t0.587890625,1.8251953125q0,0.751953125-0.2802734375,1.6474609375t-0.7998046875,1.6953125t-1.23046875,1.3330078125t-1.5859375,0.533203125l-0.35546875-0.02734375q0,0.369140625,0.109375,0.9912109375t0.3212890625,1.2373046875t0.546875,1.080078125t0.8134765625,0.46484375q0.697265625,0,1.33984375-0.560546875t1.216796875-1.244140625t1.06640625-1.244140625t0.90234375-0.560546875q0.21875,0,0.451171875,0.068359375t0.259765625,0.3828125q0,0.19140625-0.1025390625,0.314453125t-0.1845703125,0.2734375q-0.423828125,0.724609375-0.9228515625,1.380859375t-1.1279296875,1.189453125t-1.3740234375,0.8408203125t-1.6474609375,0.3076171875q-1.17578125,0-1.955078125-0.4169921875t-1.2578125-1.12109375t-0.6904296875-1.626953125t-0.2119140625-1.9345703125z M50.62904296875,28.421875l0.3828125,0.341796875q0.2734375,0.24609375,0.546875,0.109375t0.4921875-0.4990234375t0.4033203125-0.8955078125t0.328125-1.09375t0.2119140625-1.09375t0.068359375-0.888671875l0-0.46484375t-0.041015625-0.4921875t-0.1435546875-0.3896484375t-0.3212890625-0.1982421875q-0.068359375-0.013671875-0.123046875-0.013671875q-0.46484375,0-0.79296875,0.587890625q-0.35546875,0.65625-0.57421875,1.5927734375t-0.314453125,1.9208984375t-0.123046875,1.4765625z M60.1675,27.2734375q0-0.2734375,0.7451171875-0.41015625t1.75-0.1982421875t2.0849609375-0.0478515625t1.75,0.013671875q0.341796875,0,0.7998046875,0.1298828125t0.4580078125,0.4306640625q0,0.24609375-0.21875,0.3623046875t-0.5126953125,0.1708984375t-0.57421875,0.0546875l-0.3623046875,0q-0.95703125,0-1.7978515625-0.041015625t-1.7431640625-0.041015625q-0.2734375,0-0.5537109375,0.02734375t-0.5263671875,0.02734375l-0.3896484375,0t-0.423828125-0.041015625t-0.341796875-0.13671875t-0.1435546875-0.30078125z M71.11416015625,33.80859375q0.0546875-2.857421875,0.2392578125-5.701171875t0.3212890625-5.701171875q0.02734375-1.09375,0.02734375-1.9892578125t0.0888671875-1.5517578125t0.328125-1.0048828125t0.7998046875-0.3486328125q0.478515625,0,0.724609375,0.13671875t0.3759765625,0.3486328125t0.1572265625,0.478515625t0.02734375,0.5400390625q0,0.396484375,0.02734375,0.7861328125t0.02734375,0.7861328125q0,2.884765625-0.1572265625,5.755859375t-0.1572265625,5.783203125q0,0.423828125,0.013671875,0.8544921875t0.013671875,0.8818359375q0,0.1640625-0.150390625,0.2734375t-0.3759765625,0.1845703125t-0.478515625,0.1025390625t-0.4169921875,0.02734375q-0.19140625,0-0.4306640625-0.02734375t-0.46484375-0.1162109375t-0.3828125-0.2119140625t-0.1572265625-0.287109375z M71.87978515625,15.26953125q0-0.13671875,0.041015625-0.3076171875t0.095703125-0.3076171875q0.02734375-0.1640625,0.08203125-0.560546875t0.1982421875-0.7724609375t0.396484375-0.669921875t0.7177734375-0.2939453125l0.259765625,0q0.21875,0.0546875,0.4443359375,0.13671875t0.2255859375,0.396484375q0,0.13671875-0.013671875,0.259765625t-0.041015625,0.2734375q-0.109375,0.806640625-0.2119140625,1.271484375t-0.2392578125,0.7041015625t-0.3486328125,0.3076171875t-0.5400390625,0.095703125q-0.109375,0-0.2939453125-0.013671875t-0.35546875-0.068359375t-0.2939453125-0.1708984375t-0.123046875-0.2802734375z M77.1526171875,28.96875l0-0.396484375q0-0.4921875,0.02734375-0.9296875q0.02734375-0.615234375,0.02734375-1.01171875q0-0.21875,0.02734375-0.4990234375t0.13671875-0.4443359375q0.13671875-0.13671875,0.3212890625-0.2802734375t0.4033203125-0.1435546875q0.697265625,0,1.09375,0.1572265625t0.423828125,0.6494140625l0.0546875,0.423828125q0.24609375-0.587890625,0.65625-1.4560546875t0.9501953125-1.654296875t1.216796875-1.33984375t1.4287109375-0.5537109375q0.697265625,0,1.1484375,0.65625t0.7177734375,1.6748046875t0.3759765625,2.26953125t0.150390625,2.4541015625t0.0546875,2.1943359375t0.095703125,1.4970703125q0.0546875,0.423828125,0.1845703125,0.8955078125t0.1298828125,0.8681640625q0,0.109375-0.1572265625,0.2119140625t-0.3349609375,0.1708984375t-0.3623046875,0.109375t-0.2666015625,0.041015625q-0.533203125,0-0.7587890625-0.7998046875t-0.2802734375-2.0029296875t-0.0546875-2.6044921875t-0.095703125-2.6044921875t-0.3896484375-2.0029296875t-0.9365234375-0.8271484375q-0.587890625,0-1.216796875,0.7587890625t-1.080078125,2.0166015625q-0.4375,1.2578125-0.6015625,2.857421875q-0.0546875,0.505859375-0.0546875,1.01171875q0,1.107421875,0.232421875,2.21484375q0.02734375,0.19140625-0.1572265625,0.287109375t-0.4580078125,0.150390625t-0.5537109375,0.068359375t-0.4306640625,0.013671875q-0.533203125,0-0.8544921875-0.3759765625t-0.4990234375-0.9638671875t-0.2392578125-1.3193359375t-0.0751953125-1.4423828125z"/><path fill="#ffffff" d="M94.45669921875,15.9453125q0-0.55078125,0.134765625-0.802734375t0.38671875-0.3515625t0.609375-0.076171875t0.837890625,0.0234375q1.21875,0,2.4609375,0.375t2.23828125,1.095703125t1.60546875,1.775390625t0.609375,2.42578125q0,0.9140625-0.263671875,1.728515625t-0.744140625,1.5234375t-1.125,1.294921875t-1.41796875,1.01953125q0.31640625,0.31640625,0.8203125,1.119140625t0.99609375,1.7109375t0.873046875,1.763671875t0.451171875,1.2890625l-0.140625,0.2109375q-0.31640625,0.1875-0.76171875,0.19921875q-0.2109375,0-0.55078125-0.052734375t-0.43359375-0.310546875q-0.48046875-1.34765625-1.048828125-2.77734375t-1.400390625-2.578125l0-0.0234375q-0.29296875,0.1171875-0.580078125,0.228515625t-0.580078125,0.205078125q0.09375,1.30078125,0.193359375,2.560546875t0.099609375,2.548828125q0,0.1640625-0.158203125,0.263671875t-0.357421875,0.158203125t-0.404296875,0.08203125t-0.333984375,0.0234375q-0.1171875,0-0.333984375-0.0234375t-0.416015625-0.08203125t-0.345703125-0.169921875t-0.146484375-0.298828125q0-1.30078125-0.05859375-2.595703125t-0.12890625-2.583984375q-0.36328125-0.234375-0.36328125-0.609375q0-0.29296875,0.28125-0.3984375q-0.140625-2.47265625-0.322265625-4.93359375t-0.181640625-4.95703125z M96.57779296875,15.58203125q0.1640625,2.54296875,0.369140625,5.02734375t0.392578125,5.02734375q0.8203125-0.234375,1.529296875-0.814453125t1.224609375-1.306640625t0.802734375-1.58203125t0.287109375-1.69921875q0-0.9375-0.375-1.798828125t-0.99609375-1.505859375q-0.6328125-0.64453125-1.453125-1.0078125q-0.7265625-0.31640625-1.5234375-0.31640625l-0.2109375,0z M105.73798828125,28.109375q0-0.8203125,0.181640625-1.93359375t0.615234375-2.109375t1.142578125-1.693359375t1.787109375-0.697265625q1.0078125,0,1.51171875,0.580078125t0.50390625,1.564453125q0,0.64453125-0.240234375,1.412109375t-0.685546875,1.453125t-1.0546875,1.142578125t-1.359375,0.45703125l-0.3046875-0.0234375q0,0.31640625,0.09375,0.849609375t0.275390625,1.060546875t0.46875,0.92578125t0.697265625,0.3984375q0.59765625,0,1.1484375-0.48046875t1.04296875-1.06640625t0.9140625-1.06640625t0.7734375-0.48046875q0.1875,0,0.38671875,0.05859375t0.22265625,0.328125q0,0.1640625-0.087890625,0.26953125t-0.158203125,0.234375q-0.36328125,0.62109375-0.791015625,1.18359375t-0.966796875,1.01953125t-1.177734375,0.720703125t-1.412109375,0.263671875q-1.0078125,0-1.67578125-0.357421875t-1.078125-0.9609375t-0.591796875-1.39453125t-0.181640625-1.658203125z M107.83564453125,27.21875l0.328125,0.29296875q0.234375,0.2109375,0.46875,0.09375t0.421875-0.427734375t0.345703125-0.767578125t0.28125-0.9375t0.181640625-0.9375t0.05859375-0.76171875l0-0.3984375t-0.03515625-0.421875t-0.123046875-0.333984375t-0.275390625-0.169921875q-0.05859375-0.01171875-0.10546875-0.01171875q-0.3984375,0-0.6796875,0.50390625q-0.3046875,0.5625-0.4921875,1.365234375t-0.26953125,1.646484375t-0.10546875,1.265625z M115.53099609375,24.60546875q0-0.48046875,0.28125-0.826171875t0.685546875-0.5625t0.884765625-0.322265625t0.890625-0.10546875q0.31640625,0,0.84375,0.09375t1.03125,0.28125t0.873046875,0.4921875t0.369140625,0.71484375q0,0.1875-0.140625,0.333984375t-0.29296875,0.146484375q-0.31640625,0-0.57421875-0.205078125t-0.533203125-0.43359375t-0.603515625-0.43359375t-0.73828125-0.205078125t-0.744140625,0.263671875t-0.333984375,0.697265625q0,0.71484375,0.50390625,1.400390625t1.107421875,1.44140625t1.107421875,1.587890625t0.50390625,1.83984375q0,0.43359375-0.181640625,0.732421875t-0.48046875,0.486328125t-0.673828125,0.287109375t-0.7265625,0.099609375q-0.38671875,0-0.90234375-0.181640625t-0.97265625-0.48046875t-0.767578125-0.697265625t-0.310546875-0.83203125q0-0.2109375,0.298828125-0.26953125t0.439453125-0.05859375q0.0703125,0,0.216796875,0.046875t0.287109375,0.10546875t0.251953125,0.12890625t0.087890625,0.15234375q0.1171875,0.140625,0.357421875,0.416015625t0.48046875,0.4453125t0.421875,0.123046875t0.181640625-0.52734375q0-0.9140625-0.4921875-1.681640625t-1.072265625-1.5t-1.072265625-1.453125t-0.4921875-1.541015625z M123.30837890625,20.1875q0-0.1640625,0.3515625-0.28125t0.796875-0.193359375t0.861328125-0.111328125t0.568359375-0.05859375q0-0.31640625,0.0234375-0.638671875t0.12890625-0.57421875t0.333984375-0.404296875t0.638671875-0.15234375q0.33984375,0,0.515625,0.08203125t0.375,0.33984375q0.046875,0.140625,0.046875,0.26953125l0,0.392578125t-0.0234375,0.404296875q0.43359375-0.046875,0.861328125-0.111328125t0.861328125-0.064453125q0.31640625,0,0.43359375,0.01171875t0.234375,0.28125q0.09375,0.26953125-0.228515625,0.41015625t-0.7734375,0.2109375t-0.896484375,0.10546875t-0.5390625,0.03515625q-0.140625,2.015625-0.287109375,3.99609375t-0.146484375,4.01953125q0,0.9140625,0.05859375,1.88671875t0.328125,1.83984375q0.0703125,0.26953125,0.234375,0.50390625t0.1640625,0.50390625q0,0.1640625-0.12890625,0.2578125t-0.310546875,0.158203125t-0.36328125,0.076171875t-0.298828125,0.01171875q-0.73828125,0-1.125-0.55078125t-0.556640625-1.318359375t-0.181640625-1.576171875t-0.01171875-1.3125q0-1.03125,0.041015625-2.109375t0.099609375-2.1328125t0.1640625-2.0625t0.24609375-1.875q-0.41015625,0.046875-0.802734375,0.10546875t-0.802734375,0.05859375q-0.09375,0-0.251953125-0.01171875t-0.298828125-0.05859375t-0.240234375-0.12890625t-0.099609375-0.234375z M132.03498046875,27.8515625q0-0.66796875,0.169921875-1.376953125t0.5390625-1.27734375t0.931640625-0.92578125t1.359375-0.357421875q0.59765625,0,1.259765625,0.205078125t1.212890625,0.5859375t0.896484375,0.931640625t0.345703125,1.23046875q0,0.8203125-0.298828125,1.55859375t-0.837890625,1.318359375t-1.259765625,0.9140625t-1.564453125,0.333984375q-0.69140625,0-1.20703125-0.251953125t-0.861328125-0.673828125t-0.515625-0.99609375t-0.169921875-1.21875z M133.75763671875,27.828125q0,0.2109375,0.064453125,0.62109375t0.193359375,0.802734375t0.333984375,0.6796875t0.498046875,0.263671875q0.62109375-0.0703125,1.025390625-0.404296875t0.65625-0.814453125t0.3515625-1.04296875t0.099609375-1.06640625q0-0.64453125-0.251953125-1.078125t-0.826171875-0.703125q0,0.0234375,0.0234375,0.0234375t0.0234375-0.0234375l-0.29296875-0.0703125q-0.1171875-0.046875-0.287109375-0.10546875t-0.333984375-0.2578125q-0.45703125,0.1640625-0.708984375,0.421875t-0.380859375,0.626953125t-0.158203125,0.884765625t-0.029296875,1.2421875z"/></svg>
